<svg width="417" height="107" viewBox="0 0 417 107" fill="none" xmlns="http://www.w3.org/2000/svg">
<path d="M0.78 74.8H7.14V35.2H0.78V34H20.52C26.12 34 30.5 35.02 33.66 37.06C36.86 39.06 38.46 41.84 38.46 45.4C38.46 47.56 37.64 49.44 36 51.04C34.4 52.64 32.22 53.86 29.46 54.7L42.06 74.8H47.1V76H24.24V74.8H31.62L20.22 56.56H16.32V74.8H21.42V76H0.78V74.8ZM20.16 55.36C23.2 55.36 25.54 54.5 27.18 52.78C28.82 51.02 29.64 48.52 29.64 45.28C29.64 42.04 28.82 39.56 27.18 37.84C25.54 36.08 23.2 35.2 20.16 35.2H16.32V55.36H20.16ZM71.9531 74.68C70.9131 75.08 69.4931 75.46 67.6931 75.82C66.6531 76.06 65.5931 76.24 64.5131 76.36C63.4731 76.52 62.4131 76.6 61.3331 76.6C58.1331 76.6 55.2531 75.96 52.6931 74.68C50.1331 73.36 48.1531 71.52 46.7531 69.16C45.3531 66.76 44.6531 64.04 44.6531 61C44.6531 58 45.3331 55.32 46.6931 52.96C48.0531 50.56 49.9331 48.7 52.3331 47.38C54.7731 46.06 57.5331 45.4 60.6131 45.4C63.7731 45.4 66.5331 46.06 68.8931 47.38C71.2531 48.66 73.0731 50.48 74.3531 52.84C75.6731 55.16 76.3731 57.86 76.4531 60.94C76.4531 61.02 76.4531 61.12 76.4531 61.24C76.4531 61.36 76.4531 61.48 76.4531 61.6H52.7531C52.7931 64.56 53.1531 67.1 53.8331 69.22C54.5531 71.34 55.5131 72.94 56.7131 74.02C57.9131 75.1 59.2731 75.64 60.7931 75.64C62.2331 75.64 63.8331 75.12 65.5931 74.08C67.3931 73.04 68.9131 71.78 70.1531 70.3C71.4331 68.78 72.0731 67.42 72.0731 66.22V65.26H73.1531V78.58H71.9531V74.68ZM68.4131 60.4C68.3731 57.28 68.0331 54.68 67.3931 52.6C66.7931 50.48 65.9131 48.92 64.7531 47.92C63.6331 46.88 62.2531 46.36 60.6131 46.36C59.0131 46.36 57.6331 46.92 56.4731 48.04C55.3131 49.12 54.4131 50.72 53.7731 52.84C53.1331 54.92 52.7931 57.44 52.7531 60.4H68.4131ZM95.6559 76.6C92.4159 76.6 89.8759 75.7 88.0359 73.9C86.1959 72.1 85.2759 69.62 85.2759 66.46V47.2H79.5759V46H84.7359C86.7359 46 88.3959 45.42 89.7159 44.26C91.0759 43.06 91.7559 41.24 91.7559 38.8V36.28H92.9559V46H103.936V47.2H92.9559V68.56C92.9559 70.64 93.4759 72.22 94.5159 73.3C95.5559 74.38 96.9959 74.92 98.8359 74.92C99.8359 74.92 100.896 74.68 102.016 74.2C103.176 73.72 104.016 73.16 104.536 72.52V74.08C103.696 74.8 102.476 75.4 100.876 75.88C99.2759 76.36 97.5359 76.6 95.6559 76.6ZM116.097 76.66C113.057 76.66 110.697 75.96 109.017 74.56C107.337 73.16 106.497 71.3 106.497 68.98C106.497 66.26 107.577 64.22 109.737 62.86C111.897 61.5 114.877 60.66 118.677 60.34C121.077 60.14 122.977 59.82 124.377 59.38C125.817 58.9 126.877 58.24 127.557 57.4C128.277 56.56 128.637 55.44 128.637 54.04C128.637 51.44 128.137 49.52 127.137 48.28C126.137 47 124.757 46.36 122.997 46.36C121.637 46.36 120.037 46.92 118.197 48.04C116.397 49.12 114.857 50.44 113.577 52C112.297 53.56 111.657 54.98 111.657 56.26V57.88H110.517V43.06H111.717V47.14C112.917 47.02 113.897 46.92 114.657 46.84C116.297 46.36 117.677 46 118.797 45.76C119.957 45.52 121.177 45.4 122.457 45.4C126.617 45.4 129.857 46.52 132.177 48.76C134.537 50.96 135.717 54.02 135.717 57.94V74.8H140.757V76H128.577V68.92C127.657 71.44 126.117 73.36 123.957 74.68C121.837 76 119.217 76.66 116.097 76.66ZM119.577 74.62C121.137 74.62 122.597 74.14 123.957 73.18C125.357 72.22 126.477 70.86 127.317 69.1C128.157 67.3 128.577 65.26 128.577 62.98V57.82C128.097 58.54 127.337 59.16 126.297 59.68C125.297 60.2 124.017 60.58 122.457 60.82C119.617 61.22 117.517 62.04 116.157 63.28C114.837 64.48 114.177 66.2 114.177 68.44C114.177 70.32 114.677 71.82 115.677 72.94C116.717 74.06 118.017 74.62 119.577 74.62ZM141.811 74.8H147.751V47.2H141.811V46H155.431V74.8H161.371V76H141.811V74.8ZM146.551 31.3H156.391L151.771 42.58H151.171L146.551 31.3ZM162.377 74.8H168.317V35.2H162.377V34H175.997V74.8H182.117V76H162.377V74.8Z" fill="black"/>
<path d="M278.76 73.24H279.84V75.22C279.84 76.78 280.42 78.5 281.58 80.38C282.78 82.26 284.22 83.84 285.9 85.12C287.58 86.4 289.12 87.04 290.52 87.04C291.4 87.04 292.12 86.7 292.68 86.02C293.24 85.38 293.52 84.54 293.52 83.5V83.08C293.52 82.52 293.32 81.74 292.92 80.74C292.56 79.78 291.74 78 290.46 75.4C290.14 74.64 289.78 73.86 289.38 73.06C288.98 72.22 288.54 71.32 288.06 70.36L276.6 47.2H272.58V46H291.36V47.2H285.42L294.54 67.12C294.66 67.36 294.78 67.66 294.9 68.02C295.06 68.38 295.2 68.76 295.32 69.16C295.56 69.84 295.76 70.5 295.92 71.14C296.04 70.46 296.18 69.86 296.34 69.34C296.5 68.78 296.68 68.22 296.88 67.66L304.74 47.2H296.94V46H310.62V47.2H306L297.9 68.44C297.86 68.52 297.82 68.6 297.78 68.68C297.78 68.72 297.76 68.78 297.72 68.86C297.32 70.1 297.02 71.22 296.82 72.22C296.66 73.22 296.58 74.34 296.58 75.58V76.36C296.58 79.04 296.24 81.3 295.56 83.14C294.92 84.98 294 86.34 292.8 87.22C291.6 88.14 290.14 88.6 288.42 88.6C287.46 88.6 286.44 88.5 285.36 88.3C284.32 88.14 283.3 87.94 282.3 87.7C281.46 87.54 280.68 87.32 279.96 87.04V90.58H278.76V73.24ZM307.772 86.8H313.352V47.2H307.772V46H321.032V52.66C321.912 50.3 323.232 48.5 324.992 47.26C326.752 46.02 328.872 45.4 331.352 45.4C333.832 45.4 336.072 46.06 338.072 47.38C340.112 48.66 341.712 50.48 342.872 52.84C344.032 55.2 344.612 57.92 344.612 61C344.612 64.08 344.032 66.8 342.872 69.16C341.712 71.52 340.112 73.36 338.072 74.68C336.072 75.96 333.832 76.6 331.352 76.6C328.872 76.6 326.752 75.98 324.992 74.74C323.272 73.46 321.952 71.66 321.032 69.34V86.8H329.192V88H307.772V86.8ZM329.012 74.8C330.532 74.8 331.832 74.32 332.912 73.36C334.032 72.4 334.892 70.9 335.492 68.86C336.132 66.78 336.452 64.16 336.452 61C336.452 57.84 336.132 55.24 335.492 53.2C334.892 51.12 334.032 49.6 332.912 48.64C331.832 47.68 330.532 47.2 329.012 47.2C327.412 47.2 325.972 47.82 324.692 49.06C323.452 50.26 322.472 51.92 321.752 54.04C321.032 56.12 320.672 58.44 320.672 61C320.672 63.56 321.032 65.9 321.752 68.02C322.472 70.1 323.452 71.76 324.692 73C325.972 74.2 327.412 74.8 329.012 74.8ZM377.25 74.68C376.21 75.08 374.79 75.46 372.99 75.82C371.95 76.06 370.89 76.24 369.81 76.36C368.77 76.52 367.71 76.6 366.63 76.6C363.43 76.6 360.55 75.96 357.99 74.68C355.43 73.36 353.45 71.52 352.05 69.16C350.65 66.76 349.95 64.04 349.95 61C349.95 58 350.63 55.32 351.99 52.96C353.35 50.56 355.23 48.7 357.63 47.38C360.07 46.06 362.83 45.4 365.91 45.4C369.07 45.4 371.83 46.06 374.19 47.38C376.55 48.66 378.37 50.48 379.65 52.84C380.97 55.16 381.67 57.86 381.75 60.94C381.75 61.02 381.75 61.12 381.75 61.24C381.75 61.36 381.75 61.48 381.75 61.6H358.05C358.09 64.56 358.45 67.1 359.13 69.22C359.85 71.34 360.81 72.94 362.01 74.02C363.21 75.1 364.57 75.64 366.09 75.64C367.53 75.64 369.13 75.12 370.89 74.08C372.69 73.04 374.21 71.78 375.45 70.3C376.73 68.78 377.37 67.42 377.37 66.22V65.26H378.45V78.58H377.25V74.68ZM373.71 60.4C373.67 57.28 373.33 54.68 372.69 52.6C372.09 50.48 371.21 48.92 370.05 47.92C368.93 46.88 367.55 46.36 365.91 46.36C364.31 46.36 362.93 46.92 361.77 48.04C360.61 49.12 359.71 50.72 359.07 52.84C358.43 54.92 358.09 57.44 358.05 60.4H373.71ZM386.501 63.7H387.581V65.32C387.581 66.76 388.461 68.24 390.221 69.76C392.021 71.28 394.301 72.56 397.061 73.6C399.861 74.6 402.601 75.1 405.281 75.1C407.041 75.1 408.421 74.78 409.421 74.14C410.461 73.46 410.981 72.54 410.981 71.38C410.981 70.7 410.741 70.08 410.261 69.52C409.821 68.96 408.961 68.42 407.681 67.9C406.401 67.34 404.581 66.76 402.221 66.16C398.341 65.12 395.281 64.04 393.041 62.92C390.841 61.76 389.241 60.48 388.241 59.08C387.281 57.68 386.801 55.98 386.801 53.98C386.801 51.3 387.781 49.2 389.741 47.68C391.701 46.16 394.441 45.4 397.961 45.4C399.681 45.4 401.221 45.52 402.581 45.76C403.941 45.96 405.321 46.28 406.721 46.72C407.601 46.96 408.621 47.32 409.781 47.8V42.88H410.981V57.22H409.841V55.78C409.841 54.5 408.941 53.18 407.141 51.82C405.341 50.46 403.181 49.34 400.661 48.46C398.181 47.58 396.061 47.14 394.301 47.14C392.861 47.14 391.721 47.46 390.881 48.1C390.041 48.74 389.621 49.56 389.621 50.56C389.621 51.68 390.061 52.64 390.941 53.44C391.821 54.2 393.461 55 395.861 55.84C396.461 56.04 397.081 56.24 397.721 56.44C398.401 56.64 399.101 56.86 399.821 57.1C400.101 57.18 400.401 57.26 400.721 57.34C401.041 57.42 401.341 57.52 401.621 57.64C404.861 58.64 407.361 59.64 409.121 60.64C410.881 61.6 412.101 62.64 412.781 63.76C413.461 64.88 413.801 66.22 413.801 67.78C413.801 70.66 412.861 72.86 410.981 74.38C409.141 75.9 406.401 76.66 402.761 76.66C401.761 76.66 400.621 76.6 399.341 76.48C398.061 76.4 396.741 76.26 395.381 76.06C391.821 75.62 389.261 75.16 387.701 74.68V78.58H386.501V63.7Z" fill="black"/>
<rect x="209.321" y="12" width="65.6151" height="68.2571" rx="8" transform="rotate(20.08 209.321 12)" fill="#FFA8A8"/>
<path d="M216.91 75.8L224.53 75.8L224.53 36.2L219.37 36.2C218.21 36.2 216.93 36.74 215.53 37.82C214.17 38.86 213.01 40.16 212.05 41.72C211.09 43.24 210.61 44.64 210.61 45.92L210.61 49.52L209.53 49.52L209.53 30.8L210.73 30.8L210.73 35L247.51 35L247.51 30.8L248.71 30.8L248.71 49.52L247.63 49.52L247.63 45.92C247.63 44.64 247.15 43.24 246.19 41.72C245.27 40.16 244.11 38.86 242.71 37.82C241.35 36.74 240.07 36.2 238.87 36.2L233.71 36.2L233.71 75.8L241.33 75.8L241.33 77L216.91 77L216.91 75.8Z" fill="white"/>
<path d="M221.2 25.0769C226.867 15.7436 234.7 0.799045 246.2 2.07688C257.7 3.35472 253.7 26.2435 253.7 37.0769" stroke="#FFA8A8" stroke-width="3"/>
</svg>
